<svg width="785.1275146484375px" height="120.81007995605468px" xmlns="http://www.w3.org/2000/svg" viewBox="-142.56375732421873 14.59496002197266 785.1275146484375 120.81007995605468" style="background: rgba(0, 0, 0, 0);" preserveAspectRatio="xMidYMid"><defs><linearGradient id="editing-outline-gradient" x1="-0.41354545764260087" x2="1.4135454576426008" y1="0.09326335692419985" y2="0.9067366430758002"><stop offset="0" stop-color="#ee4208"></stop><stop offset="1" stop-color="#4139ff"></stop></linearGradient><filter id="editing-outline" x="-100%" y="-100%" width="300%" height="300%"><feMorphology in="SourceGraphic" operator="dilate" radius="1" result="outline"></feMorphology><feComposite operator="out" in="outline" in2="SourceAlpha"></feComposite></filter></defs><g filter="url(#editing-outline)"><g transform="translate(-29.550008535385132, 99)"><path d="M28.42-9.86L28.42-9.86L28.42-9.86Q29.63-8.32 29.63-5.82L29.63-5.82L29.63-5.82Q29.63-2.37 27.07-0.54L27.07-0.54L27.07-0.54Q24.51 1.28 20.48 1.28L20.48 1.28L20.48 1.28Q18.18 1.28 14.66 0.77L14.66 0.77L14.66 0.77Q7.74-0.32 5.63-0.32L5.63-0.32L5.63-0.32Q3.52-0.32 2.69-0.22L2.69-0.22L2.69-0.22Q1.86-0.13 0.51 0L0.51 0L8.38-42.24L35.97-42.24L35.97-42.24Q35.97-38.34 34.08-36.29L34.08-36.29L34.08-36.29Q32.19-34.24 28.48-34.24L28.48-34.24L28.48-34.24Q24.77-34.24 20.99-35.97L20.99-35.97L19.01-24.77L30.40-24.77L30.40-24.77Q30.40-21.38 28.74-19.49L28.74-19.49L28.74-19.49Q27.07-17.60 24.29-17.60L24.29-17.60L24.29-17.60Q21.50-17.60 19.78-18.24L19.78-18.24L19.78-18.24Q18.05-18.88 17.86-19.07L17.86-19.07L15.55-6.98L15.55-6.98Q17.09-6.78 19.97-6.78L19.97-6.78L19.97-6.78Q24.90-6.78 28.42-9.86ZM36.54-6.40L36.54-6.40L36.54-6.40Q36.54-8.13 37.44-12.48L37.44-12.48L40.83-29.76L37.06-29.76L37.31-31.68L37.31-31.68Q44.99-33.98 52.42-39.62L52.42-39.62L55.49-39.62L53.95-32.64L58.94-32.64L58.37-29.76L53.44-29.76L50.18-12.48L50.18-12.48Q49.34-8.51 49.34-7.17L49.34-7.17L49.34-7.17Q49.34-4.10 52.03-3.46L52.03-3.46L52.03-3.46Q51.39-1.28 49.09 0L49.09 0L49.09 0Q46.78 1.28 43.52 1.28L43.52 1.28L43.52 1.28Q40.26 1.28 38.40-0.77L38.40-0.77L38.40-0.77Q36.54-2.82 36.54-6.40ZM90.82-7.10L90.82-7.10L90.82-7.10Q90.82-4.29 93.70-3.46L93.70-3.46L93.70-3.46Q92.99-1.09 90.24 0.19L90.24 0.19L90.24 0.19Q87.94 1.28 85.41 1.28L85.41 1.28L85.41 1.28Q82.88 1.28 81.57 0.61L81.57 0.61L81.57 0.61Q80.26-0.06 79.55-1.15L79.55-1.15L79.55-1.15Q78.40-2.82 78.40-5.95L78.40-5.95L78.40-5.95Q78.40-7.81 79.42-12.93L79.42-12.93L80.32-17.79L80.32-17.79Q81.41-23.36 81.41-25.41L81.41-25.41L81.41-25.41Q81.41-28.99 79.42-28.99L79.42-28.99L79.42-28.99Q76.93-28.99 75.33-25.34L75.33-25.34L75.33-25.34Q74.69-23.94 74.24-21.82L74.24-21.82L69.89 0L57.02 1.28L66.05-44.80L78.91-46.08L78.40-43.52L78.40-43.52Q76.61-33.66 75.07-30.34L75.07-30.34L75.07-30.34Q78.66-33.92 85.25-33.92L85.25-33.92L85.25-33.92Q92.22-33.92 93.50-29.31L93.50-29.31L93.50-29.31Q93.95-27.84 93.95-26.56L93.95-26.56L93.95-26.56Q93.95-25.28 93.86-24.29L93.86-24.29L93.86-24.29Q93.76-23.30 93.44-21.50L93.44-21.50L92.61-16.90L91.14-9.66L91.14-9.66Q90.82-8.19 90.82-7.10ZM101.66-1.92L101.66-1.92L101.66-1.92Q100.16-3.58 99.49-6.21L99.49-6.21L99.49-6.21Q98.82-8.83 98.82-13.12L98.82-13.12L98.82-13.12Q98.82-17.41 100.29-21.31L100.29-21.31L100.29-21.31Q101.76-25.22 104.45-28.03L104.45-28.03L104.45-28.03Q109.95-33.92 119.04-33.92L119.04-33.92L119.04-33.92Q122.30-33.92 124.67-32.83L124.67-32.83L135.62-33.92L130.88-8.96L130.88-8.96Q130.69-8.19 130.69-6.78L130.69-6.78L130.69-6.78Q130.69-5.38 131.55-4.48L131.55-4.48L131.55-4.48Q132.42-3.58 133.70-3.46L133.70-3.46L133.70-3.46Q133.06-1.28 130.72 0L130.72 0L130.72 0Q128.38 1.28 125.76 1.28L125.76 1.28L125.76 1.28Q123.14 1.28 121.38 0.29L121.38 0.29L121.38 0.29Q119.62-0.70 119.10-2.37L119.10-2.37L119.10-2.37Q118.08-0.77 115.90 0.26L115.90 0.26L115.90 0.26Q113.73 1.28 110.82 1.28L110.82 1.28L110.82 1.28Q107.90 1.28 105.54 0.51L105.54 0.51L105.54 0.51Q103.17-0.26 101.66-1.92ZM115.17-27.90L115.17-27.90L115.17-27.90Q114.43-26.75 113.79-24.80L113.79-24.80L113.79-24.80Q113.15-22.85 112.10-17.63L112.10-17.63L112.10-17.63Q111.04-12.42 111.04-8.70L111.04-8.70L111.04-8.70Q111.04-4.99 111.62-3.90L111.62-3.90L111.62-3.90Q112.19-2.82 113.22-2.82L113.22-2.82L113.22-2.82Q115.26-2.82 116.77-4.77L116.77-4.77L116.77-4.77Q118.27-6.72 118.85-10.18L118.85-10.18L122.24-28.93L122.24-28.93Q120.90-30.08 119.33-30.08L119.33-30.08L119.33-30.08Q117.76-30.08 116.83-29.57L116.83-29.57L116.83-29.57Q115.90-29.06 115.17-27.90ZM166.14 1.28L166.14 1.28L166.14 1.28Q158.40 1.28 158.40-4.74L158.40-4.74L158.40-4.74Q158.46-6.40 158.98-9.22L158.98-9.22L160.13-15.10L160.13-15.10Q161.86-23.42 161.86-25.28L161.86-25.28L161.86-25.28Q161.86-28.99 159.68-28.99L159.68-28.99L159.68-28.99Q156.03-28.99 154.11-19.46L154.11-19.46L150.34 0L137.47 1.28L144.13-32.70L154.62-33.92L153.60-27.65L153.60-27.65Q156.61-33.92 165.82-33.92L165.82-33.92L165.82-33.92Q170.30-33.92 172.19-32.03L172.19-32.03L172.19-32.03Q174.08-30.14 174.08-25.92L174.08-25.92L174.08-25.92Q174.08-21.95 172.03-12.67L172.03-12.67L172.03-12.67Q171.07-8.51 171.07-6.94L171.07-6.94L171.07-6.94Q171.07-5.38 171.94-4.48L171.94-4.48L171.94-4.48Q172.80-3.58 174.08-3.46L174.08-3.46L174.08-3.46Q173.44-1.28 171.23 0L171.23 0L171.23 0Q169.02 1.28 166.14 1.28ZM217.34-29.57L217.34-29.57L217.34-29.57Q218.30-31.49 218.30-33.28L218.30-33.28L218.30-33.28Q218.30-35.07 218.11-36.06L218.11-36.06L218.11-36.06Q217.92-37.06 217.47-37.82L217.47-37.82L217.47-37.82Q216.51-39.49 214.59-39.49L214.59-39.49L214.59-39.49Q212.22-39.49 210.30-37.76L210.30-37.76L210.30-37.76Q208.26-35.97 208.26-33.15L208.26-33.15L208.26-33.15Q208.26-31.36 209.50-29.98L209.50-29.98L209.50-29.98Q210.75-28.61 212.67-27.33L212.67-27.33L212.67-27.33Q214.59-26.05 216.77-24.77L216.77-24.77L216.77-24.77Q218.94-23.49 220.86-21.95L220.86-21.95L220.86-21.95Q225.28-18.43 225.28-13.70L225.28-13.70L225.28-13.70Q225.28-10.50 223.58-7.78L223.58-7.78L223.58-7.78Q221.89-5.06 219.07-3.07L219.07-3.07L219.07-3.07Q212.93 1.28 204.80 1.28L204.80 1.28L204.80 1.28Q198.21 1.28 194.82-0.86L194.82-0.86L194.82-0.86Q191.42-3.01 191.42-6.27L191.42-6.27L191.42-6.27Q191.42-12.10 195.97-13.57L195.97-13.57L195.97-13.57Q197.25-14.02 199.20-14.02L199.20-14.02L199.20-14.02Q201.15-14.02 203.39-13.18L203.39-13.18L203.39-13.18Q202.37-10.56 202.37-8.19L202.37-8.19L202.37-8.19Q202.37-3.07 206.02-3.07L206.02-3.07L206.02-3.07Q208.38-3.07 210.34-4.80L210.34-4.80L210.34-4.80Q212.29-6.53 212.29-8.48L212.29-8.48L212.29-8.48Q212.29-10.43 211.04-11.84L211.04-11.84L211.04-11.84Q209.79-13.25 207.94-14.37L207.94-14.37L207.94-14.37Q206.08-15.49 203.94-16.58L203.94-16.58L203.94-16.58Q201.79-17.66 199.94-19.20L199.94-19.20L199.94-19.20Q195.58-22.72 195.58-28.35L195.58-28.35L195.58-28.35Q195.58-32 197.38-34.85L197.38-34.85L197.38-34.85Q199.17-37.70 202.05-39.62L202.05-39.62L202.05-39.62Q207.81-43.52 214.88-43.52L214.88-43.52L214.88-43.52Q221.95-43.52 225.38-41.41L225.38-41.41L225.38-41.41Q228.80-39.30 228.80-35.71L228.80-35.71L228.80-35.71Q228.80-32.58 226.37-30.59L226.37-30.59L226.37-30.59Q224.26-28.93 221.70-28.93L221.70-28.93L221.70-28.93Q219.14-28.93 217.34-29.57ZM262.34-7.10L262.34-7.10L262.34-7.10Q262.34-4.29 265.22-3.46L265.22-3.46L265.22-3.46Q264.51-1.09 261.76 0.19L261.76 0.19L261.76 0.19Q259.46 1.28 256.93 1.28L256.93 1.28L256.93 1.28Q254.40 1.28 253.09 0.61L253.09 0.61L253.09 0.61Q251.78-0.06 251.07-1.15L251.07-1.15L251.07-1.15Q249.92-2.82 249.92-5.95L249.92-5.95L249.92-5.95Q249.92-7.81 250.94-12.93L250.94-12.93L251.84-17.79L251.84-17.79Q252.93-23.36 252.93-25.41L252.93-25.41L252.93-25.41Q252.93-28.99 250.94-28.99L250.94-28.99L250.94-28.99Q248.45-28.99 246.85-25.34L246.85-25.34L246.85-25.34Q246.21-23.94 245.76-21.82L245.76-21.82L241.41 0L228.54 1.28L237.57-44.80L250.43-46.08L249.92-43.52L249.92-43.52Q248.13-33.66 246.59-30.34L246.59-30.34L246.59-30.34Q250.18-33.92 256.77-33.92L256.77-33.92L256.77-33.92Q263.74-33.92 265.02-29.31L265.02-29.31L265.02-29.31Q265.47-27.84 265.47-26.56L265.47-26.56L265.47-26.56Q265.47-25.28 265.38-24.29L265.38-24.29L265.38-24.29Q265.28-23.30 264.96-21.50L264.96-21.50L264.13-16.90L262.66-9.66L262.66-9.66Q262.34-8.19 262.34-7.10ZM273.18-1.92L273.18-1.92L273.18-1.92Q271.68-3.58 271.01-6.21L271.01-6.21L271.01-6.21Q270.34-8.83 270.34-13.12L270.34-13.12L270.34-13.12Q270.34-17.41 271.81-21.31L271.81-21.31L271.81-21.31Q273.28-25.22 275.97-28.03L275.97-28.03L275.97-28.03Q281.47-33.92 290.56-33.92L290.56-33.92L290.56-33.92Q293.82-33.92 296.19-32.83L296.19-32.83L307.14-33.92L302.40-8.96L302.40-8.96Q302.21-8.19 302.21-6.78L302.21-6.78L302.21-6.78Q302.21-5.38 303.07-4.48L303.07-4.48L303.07-4.48Q303.94-3.58 305.22-3.46L305.22-3.46L305.22-3.46Q304.58-1.28 302.24 0L302.24 0L302.24 0Q299.90 1.28 297.28 1.28L297.28 1.28L297.28 1.28Q294.66 1.28 292.90 0.29L292.90 0.29L292.90 0.29Q291.14-0.70 290.62-2.37L290.62-2.37L290.62-2.37Q289.60-0.77 287.42 0.26L287.42 0.26L287.42 0.26Q285.25 1.28 282.34 1.28L282.34 1.28L282.34 1.28Q279.42 1.28 277.06 0.51L277.06 0.51L277.06 0.51Q274.69-0.26 273.18-1.92ZM286.69-27.90L286.69-27.90L286.69-27.90Q285.95-26.75 285.31-24.80L285.31-24.80L285.31-24.80Q284.67-22.85 283.62-17.63L283.62-17.63L283.62-17.63Q282.56-12.42 282.56-8.70L282.56-8.70L282.56-8.70Q282.56-4.99 283.14-3.90L283.14-3.90L283.14-3.90Q283.71-2.82 284.74-2.82L284.74-2.82L284.74-2.82Q286.78-2.82 288.29-4.77L288.29-4.77L288.29-4.77Q289.79-6.72 290.37-10.18L290.37-10.18L293.76-28.93L293.76-28.93Q292.42-30.08 290.85-30.08L290.85-30.08L290.85-30.08Q289.28-30.08 288.35-29.57L288.35-29.57L288.35-29.57Q287.42-29.06 286.69-27.90ZM342.78-7.10L342.78-7.10L342.78-7.10Q342.78-4.29 345.66-3.46L345.66-3.46L345.66-3.46Q344.96-1.09 342.21 0.19L342.21 0.19L342.21 0.19Q339.90 1.28 337.38 1.28L337.38 1.28L337.38 1.28Q334.85 1.28 333.54 0.61L333.54 0.61L333.54 0.61Q332.22-0.06 331.52-1.15L331.52-1.15L331.52-1.15Q330.37-2.82 330.37-5.95L330.37-5.95L330.37-5.95Q330.37-7.81 331.39-12.93L331.39-12.93L332.29-17.79L332.29-17.79Q333.38-23.36 333.38-25.41L333.38-25.41L333.38-25.41Q333.38-28.99 331.39-28.99L331.39-28.99L331.39-28.99Q328.90-28.99 327.30-25.34L327.30-25.34L327.30-25.34Q326.66-23.94 326.21-21.82L326.21-21.82L321.86 0L308.99 1.28L318.02-44.80L330.88-46.08L330.37-43.52L330.37-43.52Q328.58-33.66 327.04-30.34L327.04-30.34L327.04-30.34Q330.62-33.92 337.22-33.92L337.22-33.92L337.22-33.92Q344.19-33.92 345.47-29.31L345.47-29.31L345.47-29.31Q345.92-27.84 345.92-26.56L345.92-26.56L345.92-26.56Q345.92-25.28 345.82-24.29L345.82-24.29L345.82-24.29Q345.73-23.30 345.41-21.50L345.41-21.50L344.58-16.90L343.10-9.66L343.10-9.66Q342.78-8.19 342.78-7.10ZM350.02-3.07L350.02-3.07L357.95-44.80L370.94-46.08L368.96-36.29L368.96-36.29Q368.26-33.28 367.36-31.17L367.36-31.17L367.36-31.17Q368.77-32.96 371.84-33.66L371.84-33.66L371.84-33.66Q372.74-33.92 373.82-33.92L373.82-33.92L373.82-33.92Q379.78-33.92 383.04-30.30L383.04-30.30L383.04-30.30Q386.30-26.69 386.30-19.71L386.30-19.71L386.30-19.71Q386.30-10.62 381.12-4.93L381.12-4.93L381.12-4.93Q375.55 1.28 365.44 1.28L365.44 1.28L365.44 1.28Q358.46 1.28 353.22-1.02L353.22-1.02L353.22-1.02Q351.36-1.86 350.02-3.07ZM366.27-22.40L362.88-3.65L362.88-3.65Q364.22-2.50 365.89-2.50L365.89-2.50L365.89-2.50Q367.55-2.50 368.51-3.14L368.51-3.14L368.51-3.14Q369.47-3.78 370.18-5.06L370.18-5.06L370.18-5.06Q372.10-8.51 373.63-19.07L373.63-19.07L373.63-19.07Q374.08-22.08 374.08-25.09L374.08-25.09L374.08-25.09Q374.08-28.10 373.41-29.06L373.41-29.06L373.41-29.06Q372.74-30.02 371.46-30.02L371.46-30.02L371.46-30.02Q367.55-30.02 366.27-22.40L366.27-22.40ZM392.93-1.92L392.93-1.92L392.93-1.92Q391.42-3.58 390.75-6.21L390.75-6.21L390.75-6.21Q390.08-8.83 390.08-13.12L390.08-13.12L390.08-13.12Q390.08-17.41 391.55-21.31L391.55-21.31L391.55-21.31Q393.02-25.22 395.71-28.03L395.71-28.03L395.71-28.03Q401.22-33.92 410.30-33.92L410.30-33.92L410.30-33.92Q413.57-33.92 415.94-32.83L415.94-32.83L426.88-33.92L422.14-8.96L422.14-8.96Q421.95-8.19 421.95-6.78L421.95-6.78L421.95-6.78Q421.95-5.38 422.82-4.48L422.82-4.48L422.82-4.48Q423.68-3.58 424.96-3.46L424.96-3.46L424.96-3.46Q424.32-1.28 421.98 0L421.98 0L421.98 0Q419.65 1.28 417.02 1.28L417.02 1.28L417.02 1.28Q414.40 1.28 412.64 0.29L412.64 0.29L412.64 0.29Q410.88-0.70 410.37-2.37L410.37-2.37L410.37-2.37Q409.34-0.77 407.17 0.26L407.17 0.26L407.17 0.26Q404.99 1.28 402.08 1.28L402.08 1.28L402.08 1.28Q399.17 1.28 396.80 0.51L396.80 0.51L396.80 0.51Q394.43-0.26 392.93-1.92ZM406.43-27.90L406.43-27.90L406.43-27.90Q405.70-26.75 405.06-24.80L405.06-24.80L405.06-24.80Q404.42-22.85 403.36-17.63L403.36-17.63L403.36-17.63Q402.30-12.42 402.30-8.70L402.30-8.70L402.30-8.70Q402.30-4.99 402.88-3.90L402.88-3.90L402.88-3.90Q403.46-2.82 404.48-2.82L404.48-2.82L404.48-2.82Q406.53-2.82 408.03-4.77L408.03-4.77L408.03-4.77Q409.54-6.72 410.11-10.18L410.11-10.18L413.50-28.93L413.50-28.93Q412.16-30.08 410.59-30.08L410.59-30.08L410.59-30.08Q409.02-30.08 408.10-29.57L408.10-29.57L408.10-29.57Q407.17-29.06 406.43-27.90ZM442.66 0.64L442.66 0.64L442.66 0.64Q439.62 0 438.05-0.29L438.05-0.29L438.05-0.29Q436.48-0.58 434.66-0.58L434.66-0.58L434.66-0.58Q432.83-0.58 431.04 0.06L431.04 0.06L431.04 0.06Q430.08-0.51 429.47-1.66L429.47-1.66L429.47-1.66Q428.86-2.82 428.86-4.61L428.86-4.61L428.86-4.61Q428.86-8.38 432.70-11.26L432.70-11.26L448.96-22.98L448.96-22.98Q444.42-24.26 440.29-24.26L440.29-24.26L440.29-24.26Q436.16-24.26 434.69-21.44L434.69-21.44L434.69-21.44Q432.51-24 432.51-28.03L432.51-28.03L432.51-28.03Q432.51-30.72 434.46-32.48L434.46-32.48L434.46-32.48Q436.42-34.24 440.51-34.24L440.51-34.24L440.51-34.24Q442.82-34.24 444.90-33.95L444.90-33.95L444.90-33.95Q446.98-33.66 448.83-33.41L448.83-33.41L452.29-32.90L452.29-32.90Q453.95-32.64 455.65-32.64L455.65-32.64L455.65-32.64Q457.34-32.64 458.62-33.34L458.62-33.34L458.62-33.34Q460.29-31.81 460.29-29.70L460.29-29.70L460.29-29.70Q460.29-26.37 456.19-22.91L456.19-22.91L440-10.82L440-10.82Q444.99-9.34 447.55-9.34L447.55-9.34L447.55-9.34Q452.93-9.34 455.23-11.90L455.23-11.90L455.23-11.90Q457.02-9.86 457.02-6.30L457.02-6.30L457.02-6.30Q457.02-2.75 454.72-0.74L454.72-0.74L454.72-0.74Q452.42 1.28 448.26 1.28L448.26 1.28L448.26 1.28Q445.70 1.28 442.66 0.64ZM477.95-3.52L477.95-3.52L477.95-3.52Q475.97 1.28 469.63 1.28L469.63 1.28L469.63 1.28Q466.37 1.28 464.32-0.96L464.32-0.96L464.32-0.96Q462.59-2.94 462.59-4.93L462.59-4.93L462.59-4.93Q462.59-10.11 464.96-20.22L464.96-20.22L467.33-32.64L480.32-33.92L476.42-13.70L476.42-13.70Q475.33-8.96 475.33-7.30L475.33-7.30L475.33-7.30Q475.33-3.65 477.95-3.52ZM468.48-41.54L468.48-41.54L468.48-41.54Q468.48-44.03 470.56-45.38L470.56-45.38L470.56-45.38Q472.64-46.72 475.65-46.72L475.65-46.72L475.65-46.72Q478.66-46.72 480.48-45.38L480.48-45.38L480.48-45.38Q482.30-44.03 482.30-41.54L482.30-41.54L482.30-41.54Q482.30-39.04 480.29-37.76L480.29-37.76L480.29-37.76Q478.27-36.48 475.26-36.48L475.26-36.48L475.26-36.48Q472.26-36.48 470.37-37.76L470.37-37.76L470.37-37.76Q468.48-39.04 468.48-41.54ZM486.18-1.92L486.18-1.92L486.18-1.92Q484.67-3.58 484.00-6.21L484.00-6.21L484.00-6.21Q483.33-8.83 483.33-13.12L483.33-13.12L483.33-13.12Q483.33-17.41 484.80-21.31L484.80-21.31L484.80-21.31Q486.27-25.22 488.96-28.03L488.96-28.03L488.96-28.03Q494.46-33.92 503.55-33.92L503.55-33.92L503.55-33.92Q506.82-33.92 509.18-32.83L509.18-32.83L520.13-33.92L515.39-8.96L515.39-8.96Q515.20-8.19 515.20-6.78L515.20-6.78L515.20-6.78Q515.20-5.38 516.06-4.48L516.06-4.48L516.06-4.48Q516.93-3.58 518.21-3.46L518.21-3.46L518.21-3.46Q517.57-1.28 515.23 0L515.23 0L515.23 0Q512.90 1.28 510.27 1.28L510.27 1.28L510.27 1.28Q507.65 1.28 505.89 0.29L505.89 0.29L505.89 0.29Q504.13-0.70 503.62-2.37L503.62-2.37L503.62-2.37Q502.59-0.77 500.42 0.26L500.42 0.26L500.42 0.26Q498.24 1.28 495.33 1.28L495.33 1.28L495.33 1.28Q492.42 1.28 490.05 0.51L490.05 0.51L490.05 0.51Q487.68-0.26 486.18-1.92ZM499.68-27.90L499.68-27.90L499.68-27.90Q498.94-26.75 498.30-24.80L498.30-24.80L498.30-24.80Q497.66-22.85 496.61-17.63L496.61-17.63L496.61-17.63Q495.55-12.42 495.55-8.70L495.55-8.70L495.55-8.70Q495.55-4.99 496.13-3.90L496.13-3.90L496.13-3.90Q496.70-2.82 497.73-2.82L497.73-2.82L497.73-2.82Q499.78-2.82 501.28-4.77L501.28-4.77L501.28-4.77Q502.78-6.72 503.36-10.18L503.36-10.18L506.75-28.93L506.75-28.93Q505.41-30.08 503.84-30.08L503.84-30.08L503.84-30.08Q502.27-30.08 501.34-29.57L501.34-29.57L501.34-29.57Q500.42-29.06 499.68-27.90ZM550.66 1.28L550.66 1.28L550.66 1.28Q542.91 1.28 542.91-4.74L542.91-4.74L542.91-4.74Q542.98-6.40 543.49-9.22L543.49-9.22L544.64-15.10L544.64-15.10Q546.37-23.42 546.37-25.28L546.37-25.28L546.37-25.28Q546.37-28.99 544.19-28.99L544.19-28.99L544.19-28.99Q540.54-28.99 538.62-19.46L538.62-19.46L534.85 0L521.98 1.28L528.64-32.70L539.14-33.92L538.11-27.65L538.11-27.65Q541.12-33.92 550.34-33.92L550.34-33.92L550.34-33.92Q554.82-33.92 556.70-32.03L556.70-32.03L556.70-32.03Q558.59-30.14 558.59-25.92L558.59-25.92L558.59-25.92Q558.59-21.95 556.54-12.67L556.54-12.67L556.54-12.67Q555.58-8.51 555.58-6.94L555.58-6.94L555.58-6.94Q555.58-5.38 556.45-4.48L556.45-4.48L556.45-4.48Q557.31-3.58 558.59-3.46L558.59-3.46L558.59-3.46Q557.95-1.28 555.74 0L555.74 0L555.74 0Q553.54 1.28 550.66 1.28Z" fill="url(#editing-outline-gradient)"></path></g></g><style>text {
  font-size: 64px;
  font-family: Arial Black;
  dominant-baseline: central;
  text-anchor: middle;
}</style></svg>